<svg data-v-07086519="" width="24" height="24" viewBox="0 0 24 24" xmlns="http://www.w3.org/2000/svg"><path d="M6.64631 12C6.64679 12.1893 6.72189 12.3708 6.85531 12.505L16.1353 21.784C16.2692 21.9179 16.4509 21.9932 16.6403 21.9932C16.8297 21.9932 17.0114 21.9179 17.1453 21.784C17.2792 21.6501 17.3545 21.4684 17.3545 21.279C17.3545 21.0896 17.2792 20.9079 17.1453 20.774L8.37031 12L17.1453 3.22601C17.2116 3.1597 17.2642 3.08097 17.3001 2.99432C17.336 2.90767 17.3545 2.8148 17.3545 2.72101C17.3545 2.5316 17.2792 2.34995 17.1453 2.21601C17.0114 2.08208 16.8297 2.00684 16.6403 2.00684C16.4509 2.00684 16.2692 2.08208 16.1353 2.21601L6.85531 11.495C6.72189 11.6293 6.64679 11.8107 6.64631 12Z" fill="currentColor" fill-opacity="0.87"></path></svg>