<svg width="53" height="53" viewBox="0 0 53 53" fill="none" xmlns="http://www.w3.org/2000/svg">
<g filter="url(#filter0_d_53_9)">
<circle cx="26.5" cy="22.5" r="22.5" fill="white"/>
</g>
<path d="M27.3057 23.1104L24.6222 27.2586L22.0615 28.3544C20.5527 26.6259 18.9415 24.5752 18.1797 21.9824L19.7129 19.1309L22.1787 17.9834C22.1348 18.2471 22.1055 18.5107 22.1055 18.7891C22.1055 21.206 24.083 23.1836 26.5 23.1836C26.7783 23.1836 27.042 23.1542 27.3057 23.1104Z" fill="#FFDA2D"/>
<path d="M30.8218 19.5903C30.8657 19.3281 30.8945 19.0659 30.8945 18.7891C30.8945 16.374 28.9199 14.3975 26.5054 14.3945H26.5C26.2217 14.3945 25.958 14.4238 25.6943 14.4678L29.5908 10.5713C31.9492 11.4502 33.8389 13.3398 34.7178 15.6982L30.8213 19.5947C30.8213 19.5933 30.8218 19.5918 30.8218 19.5903Z" fill="#80AEF8"/>
<path d="M34.7178 15.6982L33.3848 18.3008L30.8213 19.5947C30.8213 19.5933 30.8218 19.5918 30.8218 19.5903C30.8657 19.3281 30.8945 19.0659 30.8945 18.7891C30.8945 16.374 28.9199 14.3975 26.5054 14.3945H26.5015V13.6606L27.3789 11.709L29.5908 10.5713C31.9492 11.4502 33.8389 13.3398 34.7178 15.6982Z" fill="#4086F4"/>
<path d="M34.7178 15.6982L30.8213 19.5947C30.4843 21.3672 29.0781 22.7734 27.3056 23.1104H27.3056L23.0638 27.3521L22.0614 28.3544C22.3105 28.6327 22.5302 28.8818 22.7646 29.1455C24.376 30.9766 25.7676 32.6562 25.7676 34.2676C25.7676 34.6777 26.0898 35 26.5 35C26.9102 35 27.2324 34.6777 27.2324 34.2676C27.2324 32.6562 28.624 30.9766 30.2354 29.1455C32.4913 26.6113 35.2891 23.4473 35.2891 18.7891C35.2891 17.7051 35.0986 16.665 34.7178 15.6982Z" fill="#59C36A"/>
<path d="M34.7178 15.6982L30.8213 19.5946C30.4844 21.3671 29.0782 22.7734 27.3057 23.1104H27.3056L26.5015 23.9144V34.9997C26.911 34.9988 27.2324 34.6771 27.2324 34.2676C27.2324 32.6562 28.624 30.9766 30.2353 29.1455C32.4913 26.6113 35.2891 23.4473 35.2891 18.7891C35.2891 17.7051 35.0986 16.665 34.7178 15.6982Z" fill="#00A66C"/>
<path d="M26.5015 23.9145L27.3057 23.1104C27.0425 23.1542 26.7793 23.1832 26.5015 23.1834V23.9145Z" fill="#FDBF00"/>
<path d="M29.5908 10.5713L25.6943 14.4678C24.8008 14.6436 24.0097 15.0683 23.3945 15.6836L21.1289 14.7363L20.2891 12.5781C21.8711 10.9814 24.0684 10 26.5 10C27.584 10 28.624 10.1904 29.5908 10.5713Z" fill="#4086F4"/>
<path d="M26.5015 13.6606L29.5908 10.5713C28.6245 10.1906 27.585 10.0003 26.5016 10.0001V13.6606H26.5015Z" fill="#4175DF"/>
<path d="M23.3945 15.6836C22.7793 16.2988 22.3544 17.0898 22.1787 17.9834L18.1797 21.9824C17.8867 21.001 17.7109 19.9463 17.7109 18.7891C17.7109 16.3574 18.6923 14.1601 20.2891 12.5781L23.3945 15.6836Z" fill="#F03800"/>
<defs>
<filter id="filter0_d_53_9" x="0" y="0" width="53" height="53" filterUnits="userSpaceOnUse" color-interpolation-filters="sRGB">
<feFlood flood-opacity="0" result="BackgroundImageFix"/>
<feColorMatrix in="SourceAlpha" type="matrix" values="0 0 0 0 0 0 0 0 0 0 0 0 0 0 0 0 0 0 127 0" result="hardAlpha"/>
<feOffset dy="4"/>
<feGaussianBlur stdDeviation="2"/>
<feComposite in2="hardAlpha" operator="out"/>
<feColorMatrix type="matrix" values="0 0 0 0 0 0 0 0 0 0 0 0 0 0 0 0 0 0 0.25 0"/>
<feBlend mode="normal" in2="BackgroundImageFix" result="effect1_dropShadow_53_9"/>
<feBlend mode="normal" in="SourceGraphic" in2="effect1_dropShadow_53_9" result="shape"/>
</filter>
</defs>
</svg>
