<svg width="18" height="25" viewBox="0 0 18 25" fill="none" xmlns="http://www.w3.org/2000/svg">
<path d="M9.59473 13.1104L6.91123 17.2586L4.35054 18.3544C2.8418 16.6259 1.23052 14.5752 0.46875 11.9824L2.00195 9.13086L4.46777 7.9834C4.42388 8.24707 4.39453 8.51074 4.39453 8.78906C4.39453 11.206 6.37202 13.1836 8.78906 13.1836C9.06738 13.1836 9.33105 13.1542 9.59473 13.1104Z" fill="#FFDA2D"/>
<path d="M13.1108 9.59033C13.1548 9.32812 13.1836 9.06592 13.1836 8.78906C13.1836 6.37402 11.209 4.39746 8.79443 4.39453H8.78906C8.51074 4.39453 8.24707 4.42383 7.9834 4.46777L11.8799 0.571289C14.2383 1.4502 16.1279 3.33984 17.0068 5.69824L13.1104 9.59473C13.1104 9.59326 13.1108 9.5918 13.1108 9.59033Z" fill="#80AEF8"/>
<path d="M17.0068 5.69824L15.6738 8.30078L13.1104 9.59473C13.1104 9.59326 13.1108 9.5918 13.1108 9.59033C13.1548 9.32812 13.1836 9.06592 13.1836 8.78906C13.1836 6.37402 11.209 4.39746 8.79443 4.39453H8.79053V3.66064L9.66797 1.70898L11.8799 0.571289C14.2383 1.4502 16.1279 3.33984 17.0068 5.69824Z" fill="#4086F4"/>
<path d="M17.0068 5.69824L13.1104 9.59468C12.7734 11.3672 11.3672 12.7734 9.59468 13.1104H9.59463L5.35283 17.3521L4.35049 18.3544C4.59956 18.6327 4.81924 18.8818 5.05366 19.1455C6.66504 20.9766 8.05664 22.6562 8.05664 24.2676C8.05664 24.6777 8.37886 25 8.78906 25C9.19927 25 9.52148 24.6777 9.52148 24.2676C9.52148 22.6562 10.9131 20.9766 12.5244 19.1455C14.7803 16.6113 17.5781 13.4473 17.5781 8.78906C17.5781 7.70508 17.3877 6.66504 17.0068 5.69824Z" fill="#59C36A"/>
<path d="M17.0068 5.69824L13.1104 9.59463C12.7734 11.3671 11.3672 12.7734 9.59473 13.1104H9.59463L8.79058 13.9144V24.9997C9.20005 24.9988 9.52148 24.6771 9.52148 24.2676C9.52148 22.6562 10.9131 20.9766 12.5244 19.1455C14.7803 16.6113 17.5781 13.4473 17.5781 8.78906C17.5781 7.70508 17.3877 6.66504 17.0068 5.69824Z" fill="#00A66C"/>
<path d="M8.79058 13.9145L9.59473 13.1104C9.33159 13.1542 9.06841 13.1832 8.79058 13.1834V13.9145Z" fill="#FDBF00"/>
<path d="M11.8799 0.571289L7.9834 4.46777C7.08984 4.64356 6.29878 5.06831 5.68359 5.68364L3.41797 4.73633L2.57812 2.57813C4.16021 0.981396 6.35747 0 8.78906 0C9.87305 0 10.9131 0.19043 11.8799 0.571289Z" fill="#4086F4"/>
<path d="M8.79058 3.66069L11.8799 0.571387C10.9136 0.190674 9.87402 0.000439453 8.79063 0.000244141V3.66069H8.79058Z" fill="#4175DF"/>
<path d="M5.68359 5.68359C5.06841 6.29883 4.64351 7.0898 4.46777 7.9834L0.46875 11.9824C0.175781 11.001 0 9.94629 0 8.78906C0 6.35737 0.981397 4.16011 2.57813 2.57812L5.68359 5.68359Z" fill="#F03800"/>
</svg>
