<svg width="52" height="53" viewBox="0 0 52 53" fill="none" xmlns="http://www.w3.org/2000/svg">
<path d="M49.2128 25.9226L49.3849 10.364C49.3934 9.70721 49.1805 9.06668 48.7806 8.54563C48.3806 8.02458 47.8169 7.65337 47.1802 7.49182L32.1059 3.63618C31.2322 3.41451 30.3141 3.60445 29.6015 4.15148L3.75181 23.9935C3.13901 24.4682 2.7385 25.1657 2.63745 25.9342C2.53641 26.7027 2.743 27.48 3.21227 28.097L18.1145 47.5112C18.6035 48.1483 19.3102 48.5324 20.0546 48.6303C20.7989 48.7282 21.5809 48.5398 22.218 48.0508L48.0677 28.2087C48.7803 27.6617 49.2011 26.8239 49.2128 25.9226ZM40.6384 18.6307C40.322 18.8753 39.9604 19.0549 39.5743 19.1591C39.1882 19.2633 38.7853 19.2901 38.3888 19.238C37.9923 19.1859 37.6101 19.0558 37.2641 18.8553C36.918 18.6548 36.6151 18.3879 36.3727 18.0698C36.1281 17.7534 35.9485 17.3918 35.8443 17.0057C35.7401 16.6196 35.7133 16.2167 35.7654 15.8203C35.8175 15.4238 35.9476 15.0415 36.1481 14.6955C36.3486 14.3495 36.6155 14.0465 36.9336 13.8041C37.2499 13.5595 37.6116 13.38 37.9977 13.2757C38.3838 13.1715 38.7866 13.1447 39.1831 13.1968C39.5796 13.2489 39.9619 13.379 40.3079 13.5795C40.6539 13.78 40.9569 14.0469 41.1993 14.365C41.4438 14.6814 41.6234 15.043 41.7277 15.4291C41.8319 15.8152 41.8587 16.2181 41.8066 16.6146C41.7544 17.0111 41.6244 17.3933 41.4239 17.7393C41.2234 18.0853 40.9565 18.3883 40.6384 18.6307Z" fill="#FF5959"/>
<path d="M30.8777 33.3555C30.6633 33.6574 30.2959 33.7936 29.9416 33.7567L25.0154 33.0507L21.6325 36.7027C21.5274 36.8157 21.3966 36.9017 21.2513 36.9536C21.1059 37.0054 20.9502 37.0215 20.7973 37.0006C20.7496 36.9943 20.7019 36.9881 20.6554 36.9722C20.4829 36.9218 20.328 36.8239 20.2084 36.6897C20.0887 36.5556 20.0091 36.3905 19.9786 36.2134L19.1288 31.3059L14.6078 29.2165C14.4445 29.1416 14.3055 29.0225 14.2065 28.8726C14.1075 28.7227 14.0526 28.548 14.0479 28.3684C14.0432 28.1889 14.0889 28.0116 14.1799 27.8567C14.2709 27.7018 14.4035 27.5756 14.5627 27.4923L18.965 25.1684L19.5564 20.2272C19.5945 19.8633 19.8389 19.5556 20.1859 19.4265C20.5317 19.3069 20.9192 19.387 21.1862 19.6454L24.748 23.1232L29.6323 22.1539C30.0017 22.0762 30.3614 22.2206 30.5851 22.5121C30.8089 22.8037 30.8554 23.1884 30.6849 23.5252L28.486 27.9929L30.9248 32.3327C31.0959 32.6561 31.0826 33.0524 30.8777 33.3555Z" fill="#FFF9DD"/>
</svg>
