<svg width="75" height="75" viewBox="0 0 75 75" fill="none" xmlns="http://www.w3.org/2000/svg">
<g clip-path="url(#clip0_82_405)">
<path d="M64.0166 10.9835C56.9336 3.90073 47.5166 0 37.5 0C27.4834 0 18.0664 3.90073 10.9834 10.9835C3.90073 18.0664 0 27.4834 0 37.5C0 47.5166 3.90073 56.9336 10.9834 64.0165C18.0664 71.0993 27.4834 75 37.5 75C47.5166 75 56.9336 71.0993 64.0166 64.0165C71.0993 56.9336 75 47.5166 75 37.5C75 27.4834 71.0993 18.0664 64.0166 10.9835ZM37.5 70.6055C28.5873 70.6055 20.487 67.0639 14.5295 61.3156C17.7557 51.4581 27.0245 44.6777 37.5 44.6777C47.9755 44.6777 57.2443 51.4581 60.4707 61.3157C54.513 67.0639 46.4127 70.6055 37.5 70.6055ZM26.5137 29.2969C26.5137 23.239 31.4421 18.3105 37.5 18.3105C43.5579 18.3105 48.4863 23.239 48.4863 29.2969C48.4863 35.3547 43.5579 40.2832 37.5 40.2832C31.4421 40.2832 26.5137 35.3547 26.5137 29.2969ZM63.7705 57.6202C60.5376 50.0565 54.1898 44.3093 46.518 41.7486C50.3706 38.9508 52.8809 34.4118 52.8809 29.2969C52.8809 20.8159 45.981 13.916 37.5 13.916C29.019 13.916 22.1191 20.8159 22.1191 29.2969C22.1191 34.4118 24.6294 38.9508 28.4821 41.7486C20.8102 44.3093 14.4624 50.0565 11.2295 57.6202C6.94541 52.0399 4.39453 45.0627 4.39453 37.5C4.39453 19.2456 19.2456 4.39453 37.5 4.39453C55.7544 4.39453 70.6055 19.2456 70.6055 37.5C70.6055 45.0627 68.0546 52.0399 63.7705 57.6202Z" fill="#4B4B4B"/>
</g>
<defs>
<clipPath id="clip0_82_405">
<rect width="75" height="75" fill="white"/>
</clipPath>
</defs>
</svg>
