<svg width="24" height="24" viewBox="0 0 24 24" fill="none" xmlns="http://www.w3.org/2000/svg">
<path d="M23.4396 9.30754C23.3659 9.08015 23.227 8.8794 23.0402 8.73017C22.8534 8.58094 22.627 8.4898 22.3889 8.46804L15.7489 7.86447L13.1241 1.72213C12.9314 1.27039 12.4903 0.97876 12 0.97876C11.5097 0.97876 11.0686 1.27039 10.8759 1.72213L8.2511 7.86447L1.61111 8.46813C1.12398 8.5127 0.711323 8.84189 0.560385 9.30754C0.409448 9.77321 0.548796 10.2836 0.916976 10.6071L5.93655 15.0074L4.45592 21.5249C4.40243 21.7586 4.4189 22.0029 4.50327 22.2273C4.58764 22.4517 4.73618 22.6463 4.93039 22.7869C5.13866 22.9389 5.38996 23.0205 5.64779 23.0199C5.86323 23.0199 6.08047 22.9624 6.27454 22.8459L12 19.4234L17.724 22.8459C17.9292 22.9688 18.166 23.0287 18.4049 23.0182C18.6439 23.0077 18.8745 22.9273 19.0682 22.787C19.2624 22.6464 19.411 22.4518 19.4953 22.2274C19.5797 22.0029 19.5962 21.7587 19.5427 21.5249L18.062 15.0074L23.0816 10.6057C23.262 10.4483 23.3921 10.2413 23.4558 10.0105C23.5195 9.77963 23.5138 9.53519 23.4396 9.30754Z" fill="#FFD200"/>
</svg>
