<svg width="45" height="45" viewBox="0 0 45 45" fill="none" xmlns="http://www.w3.org/2000/svg">
<circle cx="22.5" cy="22.5" r="22.5" fill="#368EEF"/>
<path d="M31.6315 26.7744L30.4087 25.0152C30.2417 24.7761 30.1519 24.4916 30.1512 24.2V19.1512C30.1512 17.2546 29.3978 15.4357 28.0567 14.0945C26.7156 12.7534 24.8966 12 23 12C21.1034 12 19.2844 12.7534 17.9433 14.0945C16.6022 15.4357 15.8488 17.2546 15.8488 19.1512V24.2C15.8481 24.4916 15.7583 24.7761 15.5913 25.0152L14.3685 26.7744C14.1833 26.9796 14.0616 27.234 14.0179 27.5068C13.9743 27.7797 14.0107 28.0594 14.1226 28.3121C14.2346 28.5647 14.4173 28.7796 14.6488 28.9306C14.8803 29.0815 15.1505 29.1623 15.4269 29.1629H19.4959C19.66 29.9712 20.0986 30.6979 20.7372 31.2199C21.3758 31.7418 22.1752 32.027 23 32.027C23.8248 32.027 24.6242 31.7418 25.2628 31.2199C25.9014 30.6979 26.34 29.9712 26.5041 29.1629H30.5731C30.8495 29.1623 31.1197 29.0815 31.3512 28.9306C31.5827 28.7796 31.7654 28.5647 31.8774 28.3121C31.9893 28.0594 32.0257 27.7797 31.9821 27.5068C31.9384 27.234 31.8167 26.9796 31.6315 26.7744ZM23 30.5931C22.5574 30.5919 22.126 30.4538 21.7649 30.1977C21.4039 29.9417 21.1309 29.5802 20.9834 29.1629H25.0166C24.8691 29.5802 24.5961 29.9417 24.2351 30.1977C23.874 30.4538 23.4426 30.5919 23 30.5931ZM15.4269 27.7327C15.4592 27.7027 15.488 27.6691 15.5127 27.6325L16.7641 25.8304C17.098 25.3522 17.2777 24.7832 17.279 24.2V19.1512C17.279 17.6339 17.8818 16.1788 18.9547 15.1059C20.0276 14.033 21.4827 13.4302 23 13.4302C24.5173 13.4302 25.9724 14.033 27.0453 15.1059C28.1182 16.1788 28.721 17.6339 28.721 19.1512V24.2C28.7223 24.7832 28.902 25.3522 29.2359 25.8304L30.4873 27.6325C30.512 27.6691 30.5408 27.7027 30.5731 27.7327H15.4269Z" fill="white"/>
</svg>
